<svg width="38" height="38" viewBox="0 0 38 38" fill="none" xmlns="http://www.w3.org/2000/svg">
<mask id="mask0_75_1552" style="mask-type:luminance" maskUnits="userSpaceOnUse" x="0" y="0" width="38" height="38">
<path d="M8.19969 0.000306967V6.8402H18.365C25.0963 6.8402 30.5782 12.3232 30.5782 19.0545C30.5782 25.7847 25.0963 31.2677 18.365 31.2677H0.0380811L0.00589376 38H18.4193C23.6297 38 28.3523 35.8816 31.7732 32.4074C32.1524 32.0272 32.5336 31.648 32.8585 31.2677C35.681 27.9564 37.3638 23.6684 37.3638 18.9991C37.3638 8.52303 28.8411 0.05464 18.365 0.05464L18.4193 0.000306967H8.19969Z" fill="white"/>
</mask>
<g mask="url(#mask0_75_1552)">
<path d="M569.053 831.463L579.157 -22.3339L-29.548 -29.5375L-39.6521 824.259L569.053 831.463Z" fill="url(#paint0_linear_75_1552)"/>
</g>
<mask id="mask1_75_1552" style="mask-type:luminance" maskUnits="userSpaceOnUse" x="0" y="3" width="1" height="29">
<path d="M0 31.2674H0.670914V3.90474H0V31.2674Z" fill="white"/>
</mask>
<g mask="url(#mask1_75_1552)">
<path d="M569.053 831.462L579.157 -22.3349L-29.548 -29.5385L-39.6521 824.258L569.053 831.462Z" fill="url(#paint1_linear_75_1552)"/>
</g>
<mask id="mask2_75_1552" style="mask-type:luminance" maskUnits="userSpaceOnUse" x="2" y="1" width="1" height="31">
<path d="M2.00879 31.2674H2.6797V1.34476H2.00879V31.2674Z" fill="white"/>
</mask>
<g mask="url(#mask2_75_1552)">
<path d="M569.053 831.462L579.157 -22.3349L-29.548 -29.5385L-39.6521 824.258L569.053 831.462Z" fill="url(#paint2_linear_75_1552)"/>
</g>
<mask id="mask3_75_1552" style="mask-type:luminance" maskUnits="userSpaceOnUse" x="4" y="2" width="1" height="30">
<path d="M4.01856 31.2674H4.68746V2.66545H4.01856V31.2674Z" fill="white"/>
</mask>
<g mask="url(#mask3_75_1552)">
<path d="M569.053 831.462L579.157 -22.3349L-29.548 -29.5385L-39.6521 824.258L569.053 831.462Z" fill="url(#paint3_linear_75_1552)"/>
</g>
<mask id="mask4_75_1552" style="mask-type:luminance" maskUnits="userSpaceOnUse" x="6" y="3" width="1" height="29">
<path d="M6.02637 31.2674H6.69728V3.98719H6.02637V31.2674Z" fill="white"/>
</mask>
<g mask="url(#mask4_75_1552)">
<path d="M569.053 831.463L579.157 -22.3339L-29.548 -29.5375L-39.6521 824.259L569.053 831.463Z" fill="url(#paint4_linear_75_1552)"/>
</g>
<mask id="mask5_75_1552" style="mask-type:luminance" maskUnits="userSpaceOnUse" x="1" y="0" width="3" height="2">
<path d="M1.55104 0.773617C1.55104 1.20011 1.89706 1.54711 2.32455 1.54711C2.75205 1.54711 3.09907 1.20011 3.09907 0.773617C3.09907 0.346123 2.75205 0.000122787 2.32455 0.000122787C1.89706 0.000122787 1.55104 0.346123 1.55104 0.773617Z" fill="white"/>
</mask>
<g mask="url(#mask5_75_1552)">
<path d="M569.053 831.463L579.157 -22.3339L-29.548 -29.5375L-39.6521 824.259L569.053 831.463Z" fill="url(#paint5_linear_75_1552)"/>
</g>
<mask id="mask6_75_1552" style="mask-type:luminance" maskUnits="userSpaceOnUse" x="3" y="1" width="3" height="3">
<path d="M3.55394 2.6665C3.55394 3.09298 3.89996 3.43999 4.32745 3.43999C4.75494 3.43999 5.10096 3.09298 5.10096 2.6665C5.10096 2.239 4.75494 1.893 4.32745 1.893C3.89996 1.893 3.55394 2.239 3.55394 2.6665Z" fill="white"/>
</mask>
<g mask="url(#mask6_75_1552)">
<path d="M569.053 831.462L579.157 -22.3349L-29.548 -29.5385L-39.6521 824.258L569.053 831.462Z" fill="url(#paint6_linear_75_1552)"/>
</g>
<mask id="mask7_75_1552" style="mask-type:luminance" maskUnits="userSpaceOnUse" x="5" y="3" width="3" height="2">
<path d="M5.59268 3.98866C5.59268 4.41515 5.93971 4.76117 6.36619 4.76117C6.79369 4.76117 7.13971 4.41515 7.13971 3.98866C7.13971 3.56117 6.79369 3.21419 6.36619 3.21419C5.93971 3.21419 5.59268 3.56117 5.59268 3.98866Z" fill="white"/>
</mask>
<g mask="url(#mask7_75_1552)">
<path d="M569.053 831.463L579.157 -22.3339L-29.548 -29.5375L-39.6521 824.259L569.053 831.463Z" fill="url(#paint7_linear_75_1552)"/>
</g>
<defs>
<linearGradient id="paint0_linear_75_1552" x1="19.0923" y1="-7.80234" x2="18.5083" y2="41.5484" gradientUnits="userSpaceOnUse">
<stop stop-color="#F3AF1C"/>
<stop offset="0.192857" stop-color="#F29A20"/>
<stop offset="0.30119" stop-color="#F18E21"/>
<stop offset="0.59881" stop-color="#EF6D23"/>
<stop offset="0.790476" stop-color="#EE5323"/>
<stop offset="0.94881" stop-color="#EE3924"/>
<stop offset="1" stop-color="#EE2D24"/>
</linearGradient>
<linearGradient id="paint1_linear_75_1552" x1="0.638572" y1="-8.0217" x2="0.0545393" y2="41.329" gradientUnits="userSpaceOnUse">
<stop stop-color="#F3AF1C"/>
<stop offset="0.192857" stop-color="#F29A20"/>
<stop offset="0.30119" stop-color="#F18E21"/>
<stop offset="0.59881" stop-color="#EF6D23"/>
<stop offset="0.790476" stop-color="#EE5323"/>
<stop offset="0.94881" stop-color="#EE3924"/>
<stop offset="1" stop-color="#EE2D24"/>
</linearGradient>
<linearGradient id="paint2_linear_75_1552" x1="2.63157" y1="-7.99812" x2="2.04753" y2="41.3526" gradientUnits="userSpaceOnUse">
<stop stop-color="#F3AF1C"/>
<stop offset="0.192857" stop-color="#F29A20"/>
<stop offset="0.30119" stop-color="#F18E21"/>
<stop offset="0.59881" stop-color="#EF6D23"/>
<stop offset="0.790476" stop-color="#EE5323"/>
<stop offset="0.94881" stop-color="#EE3924"/>
<stop offset="1" stop-color="#EE2D24"/>
</linearGradient>
<linearGradient id="paint3_linear_75_1552" x1="4.6479" y1="-7.9743" x2="4.06387" y2="41.3764" gradientUnits="userSpaceOnUse">
<stop stop-color="#F3AF1C"/>
<stop offset="0.192857" stop-color="#F29A20"/>
<stop offset="0.30119" stop-color="#F18E21"/>
<stop offset="0.59881" stop-color="#EF6D23"/>
<stop offset="0.790476" stop-color="#EE5323"/>
<stop offset="0.94881" stop-color="#EE3924"/>
<stop offset="1" stop-color="#EE2D24"/>
</linearGradient>
<linearGradient id="paint4_linear_75_1552" x1="6.66418" y1="-7.94944" x2="6.08015" y2="41.4013" gradientUnits="userSpaceOnUse">
<stop stop-color="#F3AF1C"/>
<stop offset="0.192857" stop-color="#F29A20"/>
<stop offset="0.30119" stop-color="#F18E21"/>
<stop offset="0.59881" stop-color="#EF6D23"/>
<stop offset="0.790476" stop-color="#EE5323"/>
<stop offset="0.94881" stop-color="#EE3924"/>
<stop offset="1" stop-color="#EE2D24"/>
</linearGradient>
<linearGradient id="paint5_linear_75_1552" x1="2.42834" y1="-7.99953" x2="1.84431" y2="41.3512" gradientUnits="userSpaceOnUse">
<stop stop-color="#F3AF1C"/>
<stop offset="0.192857" stop-color="#F29A20"/>
<stop offset="0.30119" stop-color="#F18E21"/>
<stop offset="0.59881" stop-color="#EF6D23"/>
<stop offset="0.790476" stop-color="#EE5323"/>
<stop offset="0.94881" stop-color="#EE3924"/>
<stop offset="1" stop-color="#EE2D24"/>
</linearGradient>
<linearGradient id="paint6_linear_75_1552" x1="4.45334" y1="-7.97657" x2="3.86931" y2="41.3741" gradientUnits="userSpaceOnUse">
<stop stop-color="#F3AF1C"/>
<stop offset="0.192857" stop-color="#F29A20"/>
<stop offset="0.30119" stop-color="#F18E21"/>
<stop offset="0.59881" stop-color="#EF6D23"/>
<stop offset="0.790476" stop-color="#EE5323"/>
<stop offset="0.94881" stop-color="#EE3924"/>
<stop offset="1" stop-color="#EE2D24"/>
</linearGradient>
<linearGradient id="paint7_linear_75_1552" x1="6.5077" y1="-7.95128" x2="5.92367" y2="41.3994" gradientUnits="userSpaceOnUse">
<stop stop-color="#F3AF1C"/>
<stop offset="0.192857" stop-color="#F29A20"/>
<stop offset="0.30119" stop-color="#F18E21"/>
<stop offset="0.59881" stop-color="#EF6D23"/>
<stop offset="0.790476" stop-color="#EE5323"/>
<stop offset="0.94881" stop-color="#EE3924"/>
<stop offset="1" stop-color="#EE2D24"/>
</linearGradient>
</defs>
</svg>
