<svg width="38" height="38" viewBox="0 0 38 38" fill="none" xmlns="http://www.w3.org/2000/svg">
<mask id="mask0_56_2958" style="mask-type:luminance" maskUnits="userSpaceOnUse" x="0" y="0" width="38" height="38">
<path d="M8.19976 0V6.83994H18.3651C25.0965 6.83994 30.5785 12.323 30.5785 19.0543C30.5785 25.7846 25.0965 31.2677 18.3651 31.2677H0.0380814L0.0058938 38H18.4195C23.6299 38 28.3525 35.8816 31.7735 32.4073C32.1527 32.0271 32.5339 31.6479 32.8588 31.2677C35.6813 27.9563 37.3641 23.6683 37.3641 18.999C37.3641 8.52279 28.8413 0.0543335 18.3651 0.0543335L18.4195 0H8.19976Z" fill="white"/>
</mask>
<g mask="url(#mask0_56_2958)">
<path d="M569.058 831.469L579.162 -22.3346L-29.5482 -29.5382L-39.6524 824.265L569.058 831.469Z" fill="url(#paint0_linear_56_2958)"/>
</g>
<mask id="mask1_56_2958" style="mask-type:luminance" maskUnits="userSpaceOnUse" x="0" y="3" width="1" height="29">
<path d="M0 31.2677H0.670919V3.90483H0V31.2677Z" fill="white"/>
</mask>
<g mask="url(#mask1_56_2958)">
<path d="M569.058 831.469L579.162 -22.3346L-29.5482 -29.5382L-39.6524 824.265L569.058 831.469Z" fill="url(#paint1_linear_56_2958)"/>
</g>
<mask id="mask2_56_2958" style="mask-type:luminance" maskUnits="userSpaceOnUse" x="2" y="1" width="1" height="31">
<path d="M2.00881 31.2677H2.67973V1.34483H2.00881V31.2677Z" fill="white"/>
</mask>
<g mask="url(#mask2_56_2958)">
<path d="M569.058 831.469L579.162 -22.3346L-29.5482 -29.5382L-39.6524 824.265L569.058 831.469Z" fill="url(#paint2_linear_56_2958)"/>
</g>
<mask id="mask3_56_2958" style="mask-type:luminance" maskUnits="userSpaceOnUse" x="4" y="2" width="1" height="30">
<path d="M4.0181 31.2677H4.68701V2.66553H4.0181V31.2677Z" fill="white"/>
</mask>
<g mask="url(#mask3_56_2958)">
<path d="M569.058 831.469L579.162 -22.3346L-29.5482 -29.5382L-39.6524 824.265L569.058 831.469Z" fill="url(#paint3_linear_56_2958)"/>
</g>
<mask id="mask4_56_2958" style="mask-type:luminance" maskUnits="userSpaceOnUse" x="6" y="3" width="1" height="29">
<path d="M6.02592 31.2677H6.69684V3.98728H6.02592V31.2677Z" fill="white"/>
</mask>
<g mask="url(#mask4_56_2958)">
<path d="M569.058 831.469L579.162 -22.3346L-29.5483 -29.5382L-39.6524 824.265L569.058 831.469Z" fill="url(#paint4_linear_56_2958)"/>
</g>
<mask id="mask5_56_2958" style="mask-type:luminance" maskUnits="userSpaceOnUse" x="1" y="0" width="3" height="2">
<path d="M1.55105 0.7735C1.55105 1.19999 1.89708 1.547 2.32457 1.547C2.75207 1.547 3.0991 1.19999 3.0991 0.7735C3.0991 0.346003 2.75207 0 2.32457 0C1.89708 0 1.55105 0.346003 1.55105 0.7735Z" fill="white"/>
</mask>
<g mask="url(#mask5_56_2958)">
<path d="M569.058 831.469L579.162 -22.3346L-29.5482 -29.5382L-39.6524 824.265L569.058 831.469Z" fill="url(#paint5_linear_56_2958)"/>
</g>
<mask id="mask6_56_2958" style="mask-type:luminance" maskUnits="userSpaceOnUse" x="3" y="1" width="3" height="3">
<path d="M3.55347 2.66658C3.55347 3.09307 3.8995 3.44008 4.32699 3.44008C4.75449 3.44008 5.10051 3.09307 5.10051 2.66658C5.10051 2.23908 4.75449 1.89308 4.32699 1.89308C3.8995 1.89308 3.55347 2.23908 3.55347 2.66658Z" fill="white"/>
</mask>
<g mask="url(#mask6_56_2958)">
<path d="M569.058 831.469L579.162 -22.3346L-29.5482 -29.5382L-39.6524 824.265L569.058 831.469Z" fill="url(#paint6_linear_56_2958)"/>
</g>
<mask id="mask7_56_2958" style="mask-type:luminance" maskUnits="userSpaceOnUse" x="5" y="3" width="3" height="2">
<path d="M5.59273 3.98826C5.59273 4.41476 5.93975 4.76078 6.36625 4.76078C6.79374 4.76078 7.13977 4.41476 7.13977 3.98826C7.13977 3.56077 6.79374 3.21378 6.36625 3.21378C5.93975 3.21378 5.59273 3.56077 5.59273 3.98826Z" fill="white"/>
</mask>
<g mask="url(#mask7_56_2958)">
<path d="M569.058 831.469L579.162 -22.3346L-29.5482 -29.5382L-39.6524 824.265L569.058 831.469Z" fill="url(#paint7_linear_56_2958)"/>
</g>
<defs>
<linearGradient id="paint0_linear_56_2958" x1="19.0925" y1="-7.80289" x2="18.5084" y2="41.5482" gradientUnits="userSpaceOnUse">
<stop stop-color="#F3AF1C"/>
<stop offset="0.192857" stop-color="#F29A20"/>
<stop offset="0.30119" stop-color="#F18E21"/>
<stop offset="0.59881" stop-color="#EF6D23"/>
<stop offset="0.790476" stop-color="#EE5323"/>
<stop offset="0.94881" stop-color="#EE3924"/>
<stop offset="1" stop-color="#EE2D24"/>
</linearGradient>
<linearGradient id="paint1_linear_56_2958" x1="0.638577" y1="-8.02127" x2="0.0545397" y2="41.3298" gradientUnits="userSpaceOnUse">
<stop stop-color="#F3AF1C"/>
<stop offset="0.192857" stop-color="#F29A20"/>
<stop offset="0.30119" stop-color="#F18E21"/>
<stop offset="0.59881" stop-color="#EF6D23"/>
<stop offset="0.790476" stop-color="#EE5323"/>
<stop offset="0.94881" stop-color="#EE3924"/>
<stop offset="1" stop-color="#EE2D24"/>
</linearGradient>
<linearGradient id="paint2_linear_56_2958" x1="2.63159" y1="-7.9977" x2="2.04755" y2="41.3534" gradientUnits="userSpaceOnUse">
<stop stop-color="#F3AF1C"/>
<stop offset="0.192857" stop-color="#F29A20"/>
<stop offset="0.30119" stop-color="#F18E21"/>
<stop offset="0.59881" stop-color="#EF6D23"/>
<stop offset="0.790476" stop-color="#EE5323"/>
<stop offset="0.94881" stop-color="#EE3924"/>
<stop offset="1" stop-color="#EE2D24"/>
</linearGradient>
<linearGradient id="paint3_linear_56_2958" x1="4.64794" y1="-7.97387" x2="4.0639" y2="41.3772" gradientUnits="userSpaceOnUse">
<stop stop-color="#F3AF1C"/>
<stop offset="0.192857" stop-color="#F29A20"/>
<stop offset="0.30119" stop-color="#F18E21"/>
<stop offset="0.59881" stop-color="#EF6D23"/>
<stop offset="0.790476" stop-color="#EE5323"/>
<stop offset="0.94881" stop-color="#EE3924"/>
<stop offset="1" stop-color="#EE2D24"/>
</linearGradient>
<linearGradient id="paint4_linear_56_2958" x1="6.66424" y1="-7.94999" x2="6.0802" y2="41.4011" gradientUnits="userSpaceOnUse">
<stop stop-color="#F3AF1C"/>
<stop offset="0.192857" stop-color="#F29A20"/>
<stop offset="0.30119" stop-color="#F18E21"/>
<stop offset="0.59881" stop-color="#EF6D23"/>
<stop offset="0.790476" stop-color="#EE5323"/>
<stop offset="0.94881" stop-color="#EE3924"/>
<stop offset="1" stop-color="#EE2D24"/>
</linearGradient>
<linearGradient id="paint5_linear_56_2958" x1="2.42836" y1="-8.00009" x2="1.84432" y2="41.351" gradientUnits="userSpaceOnUse">
<stop stop-color="#F3AF1C"/>
<stop offset="0.192857" stop-color="#F29A20"/>
<stop offset="0.30119" stop-color="#F18E21"/>
<stop offset="0.59881" stop-color="#EF6D23"/>
<stop offset="0.790476" stop-color="#EE5323"/>
<stop offset="0.94881" stop-color="#EE3924"/>
<stop offset="1" stop-color="#EE2D24"/>
</linearGradient>
<linearGradient id="paint6_linear_56_2958" x1="4.45337" y1="-7.97615" x2="3.86934" y2="41.375" gradientUnits="userSpaceOnUse">
<stop stop-color="#F3AF1C"/>
<stop offset="0.192857" stop-color="#F29A20"/>
<stop offset="0.30119" stop-color="#F18E21"/>
<stop offset="0.59881" stop-color="#EF6D23"/>
<stop offset="0.790476" stop-color="#EE5323"/>
<stop offset="0.94881" stop-color="#EE3924"/>
<stop offset="1" stop-color="#EE2D24"/>
</linearGradient>
<linearGradient id="paint7_linear_56_2958" x1="6.50776" y1="-7.95183" x2="5.92372" y2="41.3993" gradientUnits="userSpaceOnUse">
<stop stop-color="#F3AF1C"/>
<stop offset="0.192857" stop-color="#F29A20"/>
<stop offset="0.30119" stop-color="#F18E21"/>
<stop offset="0.59881" stop-color="#EF6D23"/>
<stop offset="0.790476" stop-color="#EE5323"/>
<stop offset="0.94881" stop-color="#EE3924"/>
<stop offset="1" stop-color="#EE2D24"/>
</linearGradient>
</defs>
</svg>
