<svg width="24" height="24" viewBox="0 0 24 24" fill="none" xmlns="http://www.w3.org/2000/svg">
<path d="M19.1749 1.82471H4.8252C3.1752 1.82471 1.8252 3.17471 1.8252 4.82471V19.176C1.8252 20.826 3.1752 22.176 4.8252 22.176H19.1764C20.8264 22.176 22.1764 20.826 22.1764 19.176V4.82471C22.1749 3.17471 20.8264 1.82471 19.1749 1.82471ZM18.9822 12.687H16.5672V21.4245H12.9537V12.687H11.1462V9.67496H12.9537V7.86746C12.9537 5.41046 13.9737 3.94871 16.8762 3.94871H19.2889V6.95996H17.7799C16.6519 6.95996 16.5769 7.38221 16.5769 8.16746L16.5672 9.67496H19.3009L18.9822 12.687Z" fill="#FDFCFC"/>
</svg>
