<svg width="108" height="24" viewBox="0 0 108 24" fill="none" xmlns="http://www.w3.org/2000/svg">
<path d="M21.9842 10.7229L17.7561 14.4129L19.0226 19.9067C19.0897 20.1939 19.0705 20.4945 18.9677 20.7709C18.8648 21.0472 18.6827 21.2872 18.4442 21.4606C18.2057 21.6341 17.9214 21.7334 17.6267 21.7462C17.3321 21.7589 17.0402 21.6845 16.7876 21.5323L11.9961 18.6261L7.21483 21.5323C6.96223 21.6845 6.67038 21.7589 6.37574 21.7462C6.0811 21.7334 5.79676 21.6341 5.55826 21.4606C5.31976 21.2872 5.13769 21.0472 5.03481 20.7709C4.93193 20.4945 4.9128 20.1939 4.97983 19.9067L6.24451 14.4186L2.01545 10.7229C1.79177 10.53 1.63003 10.2754 1.5505 9.99089C1.47098 9.70642 1.47721 9.4048 1.56842 9.12385C1.65964 8.84291 1.83176 8.59515 2.06322 8.41164C2.29468 8.22813 2.57517 8.11705 2.86951 8.09231L8.44389 7.6095L10.6198 2.4195C10.7335 2.14717 10.9251 1.91455 11.1707 1.75093C11.4163 1.58731 11.7047 1.5 11.9998 1.5C12.2949 1.5 12.5834 1.58731 12.829 1.75093C13.0745 1.91455 13.2662 2.14717 13.3798 2.4195L15.5623 7.6095L21.1348 8.09231C21.4292 8.11705 21.7097 8.22813 21.9411 8.41164C22.1726 8.59515 22.3447 8.84291 22.4359 9.12385C22.5271 9.4048 22.5334 9.70642 22.4538 9.99089C22.3743 10.2754 22.2126 10.53 21.9889 10.7229H21.9842Z" fill="#EF4D23"/>
<path d="M49.9842 10.7229L45.7561 14.4129L47.0226 19.9067C47.0897 20.1939 47.0705 20.4945 46.9677 20.7709C46.8648 21.0472 46.6827 21.2872 46.4442 21.4606C46.2057 21.6341 45.9214 21.7334 45.6267 21.7462C45.3321 21.7589 45.0402 21.6845 44.7876 21.5323L39.9961 18.6261L35.2148 21.5323C34.9622 21.6845 34.6704 21.7589 34.3757 21.7462C34.0811 21.7334 33.7968 21.6341 33.5583 21.4606C33.3198 21.2872 33.1377 21.0472 33.0348 20.7709C32.9319 20.4945 32.9128 20.1939 32.9798 19.9067L34.2445 14.4186L30.0155 10.7229C29.7918 10.53 29.63 10.2754 29.5505 9.99089C29.471 9.70642 29.4772 9.4048 29.5684 9.12385C29.6596 8.84291 29.8318 8.59515 30.0632 8.41164C30.2947 8.22813 30.5752 8.11705 30.8695 8.09231L36.4439 7.6095L38.6198 2.4195C38.7335 2.14717 38.9251 1.91455 39.1707 1.75093C39.4163 1.58731 39.7047 1.5 39.9998 1.5C40.2949 1.5 40.5834 1.58731 40.829 1.75093C41.0745 1.91455 41.2662 2.14717 41.3798 2.4195L43.5623 7.6095L49.1348 8.09231C49.4292 8.11705 49.7097 8.22813 49.9411 8.41164C50.1726 8.59515 50.3447 8.84291 50.4359 9.12385C50.5271 9.4048 50.5334 9.70642 50.4538 9.99089C50.3743 10.2754 50.2126 10.53 49.9889 10.7229H49.9842Z" fill="#EF4D23"/>
<path d="M77.9842 10.7229L73.7561 14.4129L75.0226 19.9067C75.0897 20.1939 75.0705 20.4945 74.9677 20.7709C74.8648 21.0472 74.6827 21.2872 74.4442 21.4606C74.2057 21.6341 73.9214 21.7334 73.6267 21.7462C73.3321 21.7589 73.0402 21.6845 72.7876 21.5323L67.9961 18.6261L63.2148 21.5323C62.9622 21.6845 62.6704 21.7589 62.3757 21.7462C62.0811 21.7334 61.7968 21.6341 61.5583 21.4606C61.3198 21.2872 61.1377 21.0472 61.0348 20.7709C60.9319 20.4945 60.9128 20.1939 60.9798 19.9067L62.2445 14.4186L58.0155 10.7229C57.7918 10.53 57.63 10.2754 57.5505 9.99089C57.471 9.70642 57.4772 9.4048 57.5684 9.12385C57.6596 8.84291 57.8318 8.59515 58.0632 8.41164C58.2947 8.22813 58.5752 8.11705 58.8695 8.09231L64.4439 7.6095L66.6198 2.4195C66.7335 2.14717 66.9251 1.91455 67.1707 1.75093C67.4163 1.58731 67.7047 1.5 67.9998 1.5C68.2949 1.5 68.5834 1.58731 68.829 1.75093C69.0745 1.91455 69.2662 2.14717 69.3798 2.4195L71.5623 7.6095L77.1348 8.09231C77.4292 8.11705 77.7097 8.22813 77.9411 8.41164C78.1726 8.59515 78.3447 8.84291 78.4359 9.12385C78.5271 9.4048 78.5334 9.70642 78.4538 9.99089C78.3743 10.2754 78.2126 10.53 77.9889 10.7229H77.9842Z" fill="#EF4D23"/>
<path d="M105.984 10.7229L101.756 14.4129L103.023 19.9067C103.09 20.1939 103.071 20.4945 102.968 20.7709C102.865 21.0472 102.683 21.2872 102.444 21.4606C102.206 21.6341 101.921 21.7334 101.627 21.7462C101.332 21.7589 101.04 21.6845 100.788 21.5323L95.9961 18.6261L91.2148 21.5323C90.9622 21.6845 90.6704 21.7589 90.3757 21.7462C90.0811 21.7334 89.7968 21.6341 89.5583 21.4606C89.3198 21.2872 89.1377 21.0472 89.0348 20.7709C88.9319 20.4945 88.9128 20.1939 88.9798 19.9067L90.2445 14.4186L86.0155 10.7229C85.7918 10.53 85.63 10.2754 85.5505 9.99089C85.471 9.70642 85.4772 9.4048 85.5684 9.12385C85.6596 8.84291 85.8318 8.59515 86.0632 8.41164C86.2947 8.22813 86.5752 8.11705 86.8695 8.09231L92.4439 7.6095L94.6198 2.4195C94.7335 2.14717 94.9251 1.91455 95.1707 1.75093C95.4163 1.58731 95.7047 1.5 95.9998 1.5C96.2949 1.5 96.5834 1.58731 96.829 1.75093C97.0745 1.91455 97.2662 2.14717 97.3798 2.4195L99.5623 7.6095L105.135 8.09231C105.429 8.11705 105.71 8.22813 105.941 8.41164C106.173 8.59515 106.345 8.84291 106.436 9.12385C106.527 9.4048 106.533 9.70642 106.454 9.99089C106.374 10.2754 106.213 10.53 105.989 10.7229H105.984Z" fill="#EF4D23"/>
</svg>
