<svg width="24" height="24" viewBox="0 0 24 24" fill="none" xmlns="http://www.w3.org/2000/svg">
<path fill-rule="evenodd" clip-rule="evenodd" d="M18.2067 4.79319C16.5605 3.14699 14.3278 2.22217 11.9997 2.22217C9.67163 2.22217 7.4389 3.14699 5.7927 4.79319C4.1465 6.43939 3.22168 8.67212 3.22168 11.0002C3.22168 13.3283 4.1465 15.561 5.7927 17.2072L11.2927 22.7072C11.4802 22.8947 11.7345 23 11.9997 23C12.2649 23 12.5192 22.8947 12.7067 22.7072L18.2067 17.2072C19.0218 16.3921 19.6684 15.4244 20.1095 14.3594C20.5507 13.2944 20.7777 12.1529 20.7777 11.0002C20.7777 9.84744 20.5507 8.70598 20.1095 7.64099C19.6684 6.57599 19.0218 5.6083 18.2067 4.79319ZM10.4997 11.0002C10.4997 10.6024 10.6577 10.2208 10.939 9.93953C11.2203 9.65823 11.6019 9.50019 11.9997 9.50019H12.0097C12.4075 9.50019 12.7891 9.65823 13.0704 9.93953C13.3517 10.2208 13.5097 10.6024 13.5097 11.0002V11.0102C13.5097 11.408 13.3517 11.7895 13.0704 12.0709C12.7891 12.3522 12.4075 12.5102 12.0097 12.5102H11.9997C11.6019 12.5102 11.2203 12.3522 10.939 12.0709C10.6577 11.7895 10.4997 11.408 10.4997 11.0102V11.0002Z" fill="#1E1E1E"/>
</svg>
